Coordinates
version=1
nRows=15
nColumns=42
inDegrees=yes

Units are S.I. units (second, meters, Newtons, ...)
If the header above contains a line with 'inDegrees', this indicates whether rotational values are in degrees (yes) or radians (no).

endheader
time	pelvis_tilt	pelvis_list	pelvis_rotation	pelvis_tx	pelvis_ty	pelvis_tz	hip_flexion_r	hip_adduction_r	hip_rotation_r	knee_angle_r	knee_adduction_r	knee_angle_r_beta	ankle_angle_r	subtalar_angle_r	mtp_angle_r	hip_flexion_l	hip_adduction_l	hip_rotation_l	knee_angle_l	knee_adduction_l	knee_angle_l_beta	ankle_angle_l	subtalar_angle_l	mtp_angle_l	lumbar_extension	lumbar_bending	lumbar_rotation	arm_flex_r	arm_add_r	arm_rot_r	elbow_flex_r	pro_sup_r	wrist_flex_r	wrist_dev_r	arm_flex_l	arm_add_l	arm_rot_l	elbow_flex_l	pro_sup_l	wrist_flex_l	wrist_dev_l
      2.91000000	     -2.97683452	      0.45741561	     -0.51354571	      1.53604512	      0.93727474	     -0.06535221	     -8.62574556	      3.98151416	      4.49306397	      1.63836697	     -6.52629470	      0.02859490	     18.88521810	      2.94869454	     -7.50019255	     27.65446976	     -1.56403676	      8.52013098	     20.88436485	      3.31632443	      0.36450093	     -1.61538095	    -18.53492788	     -7.50019255	     -6.86913208	     -4.54551243	     -1.88833916	      5.49434172	    -10.19726530	     -1.98087239	     31.44803102	     90.00000001	      0.00000000	      0.00000000	     -9.76119452	     -9.46623958	    -22.51218991	     15.96461548	     90.00000001	      0.00000000	      0.00000000
      2.92000000	     -3.20724524	     -0.00571833	     -0.46402764	      1.54619502	      0.93436976	     -0.06587209	     -9.09781429	      4.46290858	      4.14128695	      1.63443726	     -6.53576881	      0.02852631	     19.48109157	      3.38948306	     -7.50018515	     27.80033407	     -1.96219674	      8.99065926	     17.20626353	      2.34859303	      0.30030595	     -2.36810671	    -18.30523860	     -7.50018515	     -6.74365196	     -4.10423288	     -1.82076690	      6.01121597	    -10.48045029	     -1.55979375	     31.47224695	     90.00000001	      0.00000000	      0.00000000	    -10.18677612	     -9.34167020	    -22.78487858	     15.81225832	     90.00000001	      0.00000000	      0.00000000
      2.93000000	     -3.54084254	     -0.56209273	     -0.51449480	      1.55631535	      0.93121456	     -0.06639486	     -9.43017268	      5.04882953	      3.92382104	      1.67804559	     -6.57508825	      0.02928742	     20.08803120	      3.86781633	     -7.50017720	     28.12152979	     -2.53013692	      9.14159871	     13.88748475	      1.39762666	      0.24238233	     -2.93251268	    -17.86623221	     -7.50017720	     -6.49903116	     -3.54563104	     -1.64522393	      6.50369292	    -10.79415909	     -1.17916351	     31.45634729	     90.00000001	      0.00000000	      0.00000000	    -10.58439360	     -9.16516103	    -23.03230967	     15.65941132	     90.00000001	      0.00000000	      0.00000000
      2.94000000	     -4.03642088	     -1.22503438	     -0.64959092	      1.56654697	      0.92777922	     -0.06667042	     -9.57623381	      5.81791032	      3.90233511	      1.77108067	     -6.73994201	      0.03091119	     20.60442612	      4.08819943	     -7.50017459	     28.87982479	     -3.28652304	      8.55032032	     11.37075567	      0.51105061	      0.19845712	     -3.04419984	    -16.76001532	     -7.50017459	     -6.04282726	     -2.89327647	     -1.35330933	      6.90956545	    -11.07007054	     -0.92832472	     31.37597925	     90.00000001	      0.00000000	      0.00000000	    -11.01873584	     -9.01625883	    -23.06532176	     15.58417812	     90.00000001	      0.00000000	      0.00000000
      2.95000000	     -4.32483796	     -1.81127429	     -0.77740339	      1.57681284	      0.92468016	     -0.06713849	     -9.93885300	      6.40572085	      3.95440392	      1.92865166	     -6.70950113	      0.03366132	     21.10124952	      4.32874885	     -7.50017096	     29.28222967	     -3.95846251	      7.92234015	      8.87640729	     -0.25555152	      0.15492253	     -3.11704337	    -15.46262088	     -7.50017096	     -5.85401342	     -2.30717394	     -1.17018903	      7.35723809	    -11.31750621	     -0.63039299	     31.36879156	     90.00000001	      0.00000000	      0.00000000	    -11.36180814	     -8.85099311	    -23.16489974	     15.43060942	     90.00000001	      0.00000000	      0.00000000
      2.96000000	     -4.43080660	     -2.25548118	     -0.96738188	      1.58749663	      0.92187927	     -0.06770271	    -10.54139320	      6.81204460	      3.87649936	      2.03746472	     -6.69904005	      0.03556047	     21.55878003	      4.68446299	     -7.50015897	     29.66891264	     -4.49334310	      6.13109874	      7.14565151	     -0.92181262	      0.12471515	     -2.38752025	    -12.68382604	     -7.50015897	     -5.84465285	     -1.88445272	     -0.91166784	      7.72353961	    -11.56387567	     -0.33417534	     31.40137289	     90.00000001	      0.00000000	      0.00000000	    -11.57590433	     -8.70208049	    -23.67503604	     15.18597877	     90.00000001	      0.00000000	      0.00000000
      2.97000000	     -4.60639670	     -2.69693740	     -1.23940717	      1.59827209	      0.91908287	     -0.06816239	    -11.03246162	      7.21846055	      4.00850330	      2.25465188	     -6.71027087	      0.03935110	     21.96109470	      4.78657017	     -7.50014649	     30.35163977	     -5.12962261	      3.49187136	      6.18764138	     -1.26990854	      0.10799472	     -0.90021660	     -8.58415779	     -7.50014649	     -5.74626560	     -1.47053241	     -0.55913578	      8.02327878	    -11.74326422	     -0.24811783	     31.39421253	     90.00000001	      0.00000000	      0.00000000	    -11.77985768	     -8.57910376	    -23.95468517	     14.97688404	     90.00000001	      0.00000000	      0.00000000
      2.98000000	     -4.75779266	     -3.02579511	     -1.51476968	      1.60908575	      0.91649505	     -0.06879617	    -11.51156376	      7.46306142	      4.19470426	      2.56233897	     -6.68591116	      0.04472125	     22.27866355	      4.77468974	     -7.50013563	     30.99205889	     -5.65554368	      0.79834394	      5.61344750	     -1.42968822	      0.09797314	      0.44524511	     -4.62284828	     -7.50013563	     -5.69249096	     -1.17604585	     -0.23107119	      8.29688736	    -11.87649760	     -0.25235950	     31.37698476	     90.00000001	      0.00000000	      0.00000000	    -11.95230047	     -8.47747831	    -24.13170617	     14.82029895	     90.00000001	      0.00000000	      0.00000000
      2.99000000	     -4.97904726	     -3.32444374	     -1.41517339	      1.61980875	      0.91390353	     -0.06998880	    -11.95436800	      7.68636588	      4.06297403	      2.73420907	     -6.58164042	      0.04772095	     22.39536007	      4.73464424	     -7.50013504	     31.56182942	     -5.82138860	      0.09544676	      5.12753700	     -1.58732897	      0.08949240	      0.41430175	     -4.48453012	     -7.50013504	     -5.58945429	     -0.90548064	     -0.28863743	      8.48154311	    -11.94500902	     -0.27590972	     31.43750015	     90.00000001	      0.00000000	      0.00000000	    -12.11680996	     -8.43316988	    -24.11380994	     14.75732664	     90.00000001	      0.00000000	      0.00000000
      3.00000000	     -4.96423028	     -3.39918775	     -1.92888520	      1.63115832	      0.91195621	     -0.07050453	    -12.62079184	      7.55010348	      4.54330947	      3.10747292	     -6.52155342	      0.05423563	     22.68252439	      4.63534279	     -7.50012382	     31.93979071	     -6.31446977	     -3.46552035	      5.40691027	     -1.38178283	      0.09436839	      2.22437138	      1.40791417	     -7.50012382	     -5.68082452	     -0.91972682	      0.28885475	      8.66424241	    -11.97694052	     -0.50325148	     31.27145068	     90.00000001	      0.00000000	      0.00000000	    -12.12786840	     -8.39948228	    -24.46944914	     14.49135785	     90.00000001	      0.00000000	      0.00000000
      3.01000000	     -5.14203998	     -3.51615571	     -1.92283369	      1.64221091	      0.90981762	     -0.07178779	    -13.03641602	      7.52507842	      4.54619937	      3.46222026	     -6.44058607	      0.06042714	     22.68403780	      4.64491027	     -7.50012331	     32.22776399	     -6.31693301	     -3.61609468	      5.42309441	     -1.38126930	      0.09465085	      2.15472042	      1.47397133	     -7.50012331	     -5.61166410	     -0.86095692	      0.30905725	      8.71333874	    -12.01472673	     -0.53333721	     31.32101192	     90.00000001	      0.00000000	      0.00000000	    -12.22573363	     -8.40780372	    -24.45383569	     14.50061050	     90.00000001	      0.00000000	      0.00000000
      3.02000000	     -5.22321721	     -3.52044286	     -2.06884763	      1.65327551	      0.90811350	     -0.07313747	    -13.42542392	      7.25608120	      4.62340877	      4.07504273	     -6.19836973	      0.07112291	     22.87178906	      4.47074409	     -7.50012172	     32.33250139	     -6.28031176	     -4.00433929	      5.73208320	     -1.33194780	      0.10004372	      1.61445950	      1.97464748	     -7.50012172	     -5.67840730	     -0.91400168	      0.47357194	      8.82610471	    -11.97354606	     -0.79397563	     31.26236854	     90.00000001	      0.00000000	      0.00000000	    -12.12264303	     -8.42021264	    -24.36769355	     14.30286315	     90.00000001	      0.00000000	      0.00000000
      3.03000000	     -5.28869153	     -3.42354089	     -2.09697105	      1.66479839	      0.90657527	     -0.07465834	    -13.89653570	      6.88714516	      4.65888625	      4.59787173	     -5.98736229	      0.08024800	     22.79563646	      4.38738313	     -7.50012028	     32.40394173	     -6.03211320	     -3.96589366	      6.37004970	     -1.31463151	      0.11117834	      1.31419388	      2.24196112	     -7.50012028	     -5.70845745	     -1.09521798	      0.53223127	      8.78351859	    -11.88286609	     -1.09743391	     31.23593734	     90.00000001	      0.00000000	      0.00000000	    -12.05342070	     -8.48975139	    -24.33609162	     14.20144073	     90.00000001	      0.00000000	      0.00000000
      3.04000000	     -5.30763377	     -3.26675507	     -2.05944729	      1.67648132	      0.90534186	     -0.07642389	    -14.38749729	      6.40923079	      4.66170953	      5.17798921	     -5.70183294	      0.09037296	     22.59721198	      4.29930712	     -7.50011895	     32.43151463	     -5.67925802	     -3.60877627	      7.29229522	     -1.26219178	      0.12727456	      0.77533371	      2.37431082	     -7.50011895	     -5.79053056	     -1.33290299	      0.51972483	      8.68660973	    -11.76533130	     -1.43227783	     31.20477673	     90.00000001	      0.00000000	      0.00000000	    -11.91878770	     -8.57190708	    -24.28659875	     14.10228509	     90.00000001	      0.00000000	      0.00000000
      3.05000000	     -5.27397439	     -2.99811029	     -1.88933695	      1.68846456	      0.90443811	     -0.07851527	    -14.90951311	      5.78135977	      4.44534100	      5.79824835	     -5.32857191	      0.10119852	     22.21539137	      4.06151752	     -7.50011717	     32.45515313	     -5.11865520	     -3.04278267	      8.51817784	     -1.23223236	      0.14867025	     -0.11670045	      2.15755972	     -7.50011717	     -5.90940514	     -1.69212459	      0.40354744	      8.51429766	    -11.57475387	     -1.98945590	     31.10989452	     90.00000001	      0.00000000	      0.00000000	    -11.67985863	     -8.70479691	    -24.22736253	     13.90271870	     90.00000001	      0.00000000	      0.00000000
